# xmcd
# 
# Track frame offsets:
#     182
#     42822
#     70830
#     88065
#     105927
#     126647
#     147765
#     160335
#     180622
#     193055
#     198585
#     233807
#     255045
#     279220
# 
# Disc length: 4329
# 
# Revision: 8
# Processed by: cddbd v1.5.2PL0 Copyright (c) Steve Scherf et al.
# Submitted via: BonkEnc v1.0.8
# 
DISCID=bd10e70e
DTITLE=Alexandre Lagoya - Les plus grands succès de sa carrière
DYEAR=1990
DGENRE=Classique
TTITLE0=Joaquin Rodrigo - Concierto de Aranjuez  (Adagio)
TTITLE1=Isaac Albenitz - Asturias
TTITLE2=Francisco Tarrega - Recuerdos de la Alhambra
TTITLE3=Manuel De Falla - Danse rituelle du Feu
TTITLE4=Enrique Granado - Intermezzo
TTITLE5=Isaac Albeniz - Sevilla
TTITLE6=Gaspar Sanz - Canarios
TTITLE7=Heitor Villa-Lobos - Prélude n°1 en mi mineur
TTITLE8=Manuel Ponce - Scherzino mexicano
TTITLE9=Jean-Sebastien Bach - Musette
TTITLE10=Thomaso Albinoni - Adagio
TTITLE11=Alessandro Marcello - Andante en ré mineur
TTITLE12=Claude Debussy - Clair de lune
TTITLE13=Antonio Vivaldi - Concerto en ré majeur pour guitare et orchestre - Allegro giusto - Largo - Allegro vivace
EXTD=YEAR: 1990
EXTT0=
EXTT1=
EXTT2=
EXTT3=
EXTT4=
EXTT5=
EXTT6=
EXTT7=
EXTT8=
EXTT9=
EXTT10=
EXTT11=
EXTT12=
EXTT13=
PLAYORDER=
